<?xml version="1.0" standalone="no"?>
<!DOCTYPE svg PUBLIC "-//W3C//DTD SVG 20010904//EN"
 "http://www.w3.org/TR/2001/REC-SVG-20010904/DTD/svg10.dtd">
<svg version="1.0" xmlns="http://www.w3.org/2000/svg"
 width="500.000000pt" height="500.000000pt" viewBox="0 0 500.000000 500.000000"
 preserveAspectRatio="xMidYMid meet">

<g transform="translate(0.000000,500.000000) scale(0.100000,-0.100000)"
fill="#000000" stroke="none">
<path d="M2305 3559 c-381 -116 -464 -144 -483 -165 -21 -25 -22 -32 -20 -167
l3 -140 150 1 c179 2 212 -7 238 -60 16 -33 17 -40 3 -72 -26 -61 -47 -66
-301 -66 -229 0 -255 -4 -282 -39 -21 -28 -15 -87 11 -118 l24 -28 384 -5
c210 -3 391 -9 401 -14 19 -9 47 -56 47 -80 0 -29 -24 -68 -51 -82 -21 -10
-69 -14 -184 -14 -165 0 -203 -8 -225 -49 -18 -35 -12 -86 15 -115 l24 -26
575 0 576 0 32 29 c33 29 33 31 36 130 l4 101 -110 0 c-87 0 -114 3 -126 16
-19 19 -20 26 -4 42 8 8 59 12 163 12 209 0 195 -15 195 209 0 154 -2 180 -17
192 -12 11 -70 15 -237 19 l-221 5 0 30 0 30 178 3 179 2 -4 101 c-3 98 -4
101 -34 128 -29 26 -37 28 -150 33 -65 3 -299 4 -519 3 -220 -1 -384 2 -365 6
19 4 176 22 348 40 l312 33 0 87 c0 83 -1 89 -26 108 -15 12 -38 21 -53 20
-14 0 -233 -64 -486 -140z m1035 -699 l0 -140 -216 0 c-178 0 -222 3 -250 16
-95 45 -100 184 -8 245 26 17 50 19 252 19 l222 0 0 -140z"/>
<path d="M2900 2900 c-11 -11 -20 -29 -20 -40 0 -11 9 -29 20 -40 11 -11 29
-20 40 -20 11 0 29 9 40 20 11 11 20 29 20 40 0 11 -9 29 -20 40 -11 11 -29
20 -40 20 -11 0 -29 -9 -40 -20z"/>
<path d="M2390 1890 l0 -230 40 0 40 0 0 230 0 230 -40 0 -40 0 0 -230z"/>
<path d="M3030 1890 l0 -230 35 0 35 0 0 230 0 230 -35 0 -35 0 0 -230z"/>
<path d="M1500 1880 l0 -220 40 0 40 0 0 58 c0 53 3 61 35 92 23 22 38 31 43
24 4 -6 38 -48 76 -93 67 -78 71 -81 113 -81 23 0 43 2 43 5 0 2 -40 55 -90
116 -49 61 -90 115 -90 121 0 6 38 50 85 97 47 48 85 90 85 94 0 4 -17 7 -38
7 -36 0 -47 -8 -150 -112 l-112 -113 0 113 0 112 -40 0 -40 0 0 -220z"/>
<path d="M2074 1991 c-78 -19 -124 -83 -124 -169 0 -54 24 -100 72 -135 52
-39 194 -33 229 9 10 12 9 19 -7 35 -19 19 -22 19 -59 3 -48 -20 -99 -13 -131
17 -46 43 -34 49 100 49 69 0 127 4 131 9 9 15 -12 92 -33 120 -38 51 -114 78
-178 62z m111 -86 c46 -46 35 -55 -65 -55 -78 0 -90 2 -90 17 0 60 108 86 155
38z"/>
<path d="M2686 1986 c-133 -49 -157 -215 -43 -300 20 -14 47 -21 95 -24 58 -3
72 0 102 20 80 55 104 150 57 232 -38 67 -135 100 -211 72z m124 -83 c76 -68
10 -203 -86 -179 -76 19 -101 120 -45 177 39 39 89 40 131 2z"/>
<path d="M3297 1989 c-21 -5 -47 -14 -58 -19 -18 -10 -18 -13 -4 -40 15 -29
16 -30 45 -15 63 33 150 9 150 -41 0 -23 -2 -24 -72 -24 -54 0 -81 -5 -105
-19 -57 -35 -53 -125 8 -156 36 -19 120 -19 145 0 25 19 34 19 34 0 0 -10 11
-15 35 -15 l35 0 0 120 c0 134 -11 169 -58 194 -38 19 -109 27 -155 15z m133
-213 c0 -30 -43 -66 -77 -66 -37 0 -63 18 -63 43 0 36 19 47 82 47 55 0 58 -1
58 -24z"/>
<path d="M1930 1445 c0 -69 3 -85 15 -85 9 0 15 9 15 25 0 20 5 25 23 25 15 0
29 -9 37 -25 7 -14 22 -25 33 -25 18 0 18 0 -1 27 -18 25 -18 27 0 45 45 45 6
98 -72 98 l-50 0 0 -85z m99 41 c19 -23 2 -46 -35 -46 -31 0 -34 3 -34 30 0
26 3 30 29 30 16 0 34 -6 40 -14z"/>
<path d="M2140 1465 c0 -77 20 -105 73 -105 57 0 77 30 77 114 0 43 -3 56 -15
56 -11 0 -15 -12 -15 -51 0 -65 -13 -89 -49 -89 -35 0 -41 14 -41 86 0 41 -4
54 -15 54 -12 0 -15 -14 -15 -65z"/>
<path d="M2370 1445 c0 -69 3 -85 15 -85 9 0 15 9 15 25 0 22 4 25 38 25 45 0
72 24 72 63 0 36 -34 57 -92 57 l-48 0 0 -85z m105 25 c0 -22 -5 -25 -37 -28
-36 -3 -38 -2 -38 28 0 30 2 31 38 28 32 -3 37 -6 37 -28z"/>
<path d="M2590 1445 c0 -69 3 -85 15 -85 12 0 15 16 15 85 0 69 -3 85 -15 85
-12 0 -15 -16 -15 -85z"/>
<path d="M2718 1448 c-24 -54 -33 -84 -25 -87 6 -2 17 6 25 18 20 29 87 30
102 1 11 -21 46 -28 37 -7 -42 102 -72 157 -86 157 -11 0 -29 -29 -53 -82z
m71 11 c6 -18 11 -34 11 -35 0 -2 -14 -4 -31 -4 -26 0 -30 3 -24 18 4 9 10 25
12 35 8 26 20 21 32 -14z"/>
<path d="M2930 1445 c0 -69 3 -85 15 -85 10 0 15 11 15 35 0 35 0 35 45 35 45
0 45 0 43 -32 -2 -24 1 -33 15 -36 15 -3 17 6 17 82 0 79 -2 86 -19 86 -17 0
-19 -6 -17 -35 l4 -35 -44 0 c-44 0 -44 0 -44 35 0 24 -5 35 -15 35 -12 0 -15
-16 -15 -85z"/>
</g>
</svg>
